<svg width="104" height="114" viewBox="0 0 104 114" fill="none" xmlns="http://www.w3.org/2000/svg">
<rect x="17.5" y="22.5" width="69" height="68" rx="17.5" fill="url(#paint0_linear_14_69)" stroke="white"/>
<path d="M78.5625 31.4139C82.7588 35.6767 83.7591 42.4087 81.8391 49.954C79.9217 57.489 75.1066 65.7444 67.8283 72.9096C60.5502 80.0747 52.2209 84.7595 44.657 86.5587C37.0825 88.3604 30.3663 87.2556 26.1697 82.993C21.9732 78.7303 20.9738 71.9978 22.8938 64.4522C24.8112 56.9173 29.625 48.6619 36.9032 41.4966C44.1815 34.3314 52.5119 29.6468 60.0759 27.8476C67.6504 26.046 74.366 27.1512 78.5625 31.4139Z" fill="white" stroke="white"/>
<circle cx="73" cy="38" r="3.5" fill="#57ACEA" stroke="white"/>
<g clip-path="url(#clip0_14_69)">
<path d="M50.5259 43.2243C50.5901 42.8803 50.7727 42.5696 51.0419 42.346C51.3111 42.1224 51.65 42 52 42C52.35 42 52.6889 42.1224 52.9581 42.346C53.2273 42.5696 53.4099 42.8803 53.4741 43.2243L55.0503 51.5593C55.1622 52.1519 55.4502 52.697 55.8766 53.1234C56.303 53.5498 56.8481 53.8378 57.4407 53.9497L65.7757 55.5259C66.1197 55.5901 66.4304 55.7727 66.654 56.0419C66.8776 56.3111 67 56.65 67 57C67 57.35 66.8776 57.6889 66.654 57.9581C66.4304 58.2273 66.1197 58.4099 65.7757 58.4741L57.4407 60.0503C56.8481 60.1622 56.303 60.4502 55.8766 60.8766C55.4502 61.303 55.1622 61.8481 55.0503 62.4407L53.4741 70.7757C53.4099 71.1197 53.2273 71.4304 52.9581 71.654C52.6889 71.8776 52.35 72 52 72C51.65 72 51.3111 71.8776 51.0419 71.654C50.7727 71.4304 50.5901 71.1197 50.5259 70.7757L48.9497 62.4407C48.8378 61.8481 48.5498 61.303 48.1234 60.8766C47.697 60.4502 47.1519 60.1622 46.5593 60.0503L38.2243 58.4741C37.8803 58.4099 37.5696 58.2273 37.346 57.9581C37.1224 57.6889 37 57.35 37 57C37 56.65 37.1224 56.3111 37.346 56.0419C37.5696 55.7727 37.8803 55.5901 38.2243 55.5259L46.5593 53.9497C47.1519 53.8378 47.697 53.5498 48.1234 53.1234C48.5498 52.697 48.8378 52.1519 48.9497 51.5593L50.5259 43.2243Z" fill="url(#paint1_linear_14_69)" stroke="white" stroke-linecap="round" stroke-linejoin="round"/>
</g>
<defs>
<linearGradient id="paint0_linear_14_69" x1="52" y1="22" x2="52" y2="91" gradientUnits="userSpaceOnUse">
<stop stop-color="#001E6E"/>
<stop offset="0.389423" stop-color="#61BDF9"/>
<stop offset="1" stop-color="#FBCF49"/>
</linearGradient>
<linearGradient id="paint1_linear_14_69" x1="52" y1="72.5963" x2="52" y2="41.4037" gradientUnits="userSpaceOnUse">
<stop stop-color="#001E6E"/>
<stop offset="0.503128" stop-color="#5EB8F5"/>
<stop offset="1" stop-color="#FFCC00"/>
</linearGradient>
<clipPath id="clip0_14_69">
<rect width="30" height="30" fill="white" transform="translate(37 42)"/>
</clipPath>
</defs>
</svg>
