<svg width="104" height="114" viewBox="0 0 104 114" fill="none" xmlns="http://www.w3.org/2000/svg">
<rect x="17.5" y="22.5" width="69" height="68" rx="17.5" stroke="black"/>
<path d="M78.5625 31.4139C82.7588 35.6767 83.7591 42.4087 81.8391 49.954C79.9217 57.489 75.1066 65.7444 67.8283 72.9096C60.5502 80.0747 52.2209 84.7595 44.657 86.5587C37.0825 88.3604 30.3663 87.2556 26.1697 82.993C21.9732 78.7303 20.9738 71.9978 22.8938 64.4522C24.8112 56.9173 29.625 48.6619 36.9032 41.4966C44.1815 34.3314 52.5119 29.6468 60.0759 27.8476C67.6504 26.046 74.366 27.1512 78.5625 31.4139Z" stroke="black"/>
<circle cx="72" cy="37" r="2.5" stroke="black"/>
<path d="M50.7713 45.5175C50.8248 45.2308 50.977 44.9718 51.2014 44.7854C51.4258 44.599 51.7083 44.497 52 44.497C52.2917 44.497 52.5742 44.599 52.7986 44.7854C53.023 44.9718 53.1752 45.2308 53.2288 45.5175L54.5425 52.465C54.6358 52.9589 54.8758 53.4133 55.2313 53.7687C55.5867 54.1242 56.0411 54.3642 56.535 54.4575L63.4825 55.7713C63.7692 55.8248 64.0282 55.977 64.2146 56.2014C64.401 56.4258 64.503 56.7083 64.503 57C64.503 57.2917 64.401 57.5742 64.2146 57.7986C64.0282 58.023 63.7692 58.1752 63.4825 58.2288L56.535 59.5425C56.0411 59.6358 55.5867 59.8758 55.2313 60.2313C54.8758 60.5867 54.6358 61.0411 54.5425 61.535L53.2288 68.4825C53.1752 68.7692 53.023 69.0282 52.7986 69.2146C52.5742 69.401 52.2917 69.503 52 69.503C51.7083 69.503 51.4258 69.401 51.2014 69.2146C50.977 69.0282 50.8248 68.7692 50.7713 68.4825L49.4575 61.535C49.3642 61.0411 49.1242 60.5867 48.7687 60.2313C48.4133 59.8758 47.9589 59.6358 47.465 59.5425L40.5175 58.2288C40.2308 58.1752 39.9718 58.023 39.7854 57.7986C39.599 57.5742 39.497 57.2917 39.497 57C39.497 56.7083 39.599 56.4258 39.7854 56.2014C39.9718 55.977 40.2308 55.8248 40.5175 55.7713L47.465 54.4575C47.9589 54.3642 48.4133 54.1242 48.7687 53.7687C49.1242 53.4133 49.3642 52.9589 49.4575 52.465L50.7713 45.5175Z" stroke="black" stroke-linecap="round" stroke-linejoin="round"/>
</svg>
